# xmcd
#
# Track frame offsets: 
#        150
#        6561
#        25983
#        28575
#        31717
#        34832
#        37845
#        40832
#        53352
#        61514
#        77073
#        79921
#        84753
#        90719
#        101714
#        105762
#        112992
#        116373
#        122786
#        128949
#        140535
#        147520
#        154588
#        159947
#        169964
#        174275
#        182013
#        185166
#        191276
#        194899
#        201385
#        206140
#
# Disc length: 2860 seconds
#
# Revision: 0
# Processed by: cddbd v1.5.2PL0 Copyright (c) Steve Scherf et al.
# Submitted via: ExactAudioCopy v0.95b4
#
DISCID=a50b2a20
DTITLE=David Hamburger - Early Jazz and Swing Songs for Guitar
DYEAR=2005
DGENRE=Jazz
TTITLE0=Introduction and Tune-up
TTITLE1=Chord Voicings
TTITLE2=Strummings
TTITLE3=St. James Infirmary - Version 1
TTITLE4=St. James Infirmary - Version 2
TTITLE5=T'Ain't Nobody's Business If I Do - Version 1
TTITLE6=T'Ain't Nobody's Business If I Do - Version 2
TTITLE7=St. Louis Blues
TTITLE8=Royal Garden Blues - at Tempo
TTITLE9=Royal Garden Blues - Slow
TTITLE10=Balling' The Jack - at Tempo
TTITLE11=Balling' The Jack - Slow
TTITLE12=I Ain't Got Nobody - at Tempo
TTITLE13=I Ain't Got Nobody - Slow
TTITLE14=Hindustan - at Tempo
TTITLE15=Hindustan - Slow
TTITLE16=Avalon - at Tempo
TTITLE17=Avalon - Slow
TTITLE18=Poor Butterfly - at Tempo
TTITLE19=Poor Butterfly - Slow
TTITLE20=After You've Gone - at Tempo
TTITLE21=After You've Gone - Slow
TTITLE22=Rose Room - at Tempo
TTITLE23=Rose Room - Slow
TTITLE24=Look For The Silver Lining - at Tempo
TTITLE25=Look For The Silver Lining - Slow
TTITLE26=Indiana - at Tempo
TTITLE27=Indiana - Slow
TTITLE28=Limehouse Blues - at Tempo
TTITLE29=Limehouse Blues - Slow
TTITLE30=Till The Clouds Roll By - at Tempo
TTITLE31=Till The Clouds Roll By - Slow
EXTD=
EXTT0=
EXTT1=
EXTT2=
EXTT3=
EXTT4=
EXTT5=
EXTT6=
EXTT7=
EXTT8=
EXTT9=
EXTT10=
EXTT11=
EXTT12=
EXTT13=
EXTT14=
EXTT15=
EXTT16=
EXTT17=
EXTT18=
EXTT19=
EXTT20=
EXTT21=
EXTT22=
EXTT23=
EXTT24=
EXTT25=
EXTT26=
EXTT27=
EXTT28=
EXTT29=
EXTT30=
EXTT31=
PLAYORDER=
